# xmcd
#
# Track frame offsets: 
#        150
#        9544
#        23448
#        35360
#        46567
#        59762
#        71054
#        79909
#        90766
#        101368
#        113631
#        127006
#        139974
#        152095
#        164482
#        174695
#        184470
#        196999
#        208915
#        220357
#        230363
#        240783
#        252241
#        263328
#        275532
#        286117
#
# Disc length: 3965 seconds
#
# Revision: 4
# Processed by: cddbd v1.5.2PL0 Copyright (c) Steve Scherf et al.
# Submitted via: ExactAudioCopyFreeDBPlugin 1.0
#
DISCID=660f7b1a
DTITLE=Various Artist - Where The Girls Are - Vol. 3
DYEAR=2000
DGENRE=Blues
TTITLE0=Mitty Collier - Help Me
TTITLE1=Barbara Carr - My Mama Told Me
TTITLE2=Jan Bradley - Your Kind Of Lovin'
TTITLE3=Jo Ann Garrett - (I've Decided On) A Whole New Plan
TTITLE4=Etta James - Pushover
TTITLE5=Sugar Pie De Santo and Joe Hudson's Band - She's Got Everything
TTITLE6=Margaret and Carol - He's My Guy
TTITLE7=Kolettes  Just How Much (Can One Heart Take)
TTITLE8=Tammy Montgomery - This Time Tomorrow
TTITLE9=Jean Dushon - As I Watch You Walk Away
TTITLE10=Kittens - How Long Can I Go On
TTITLE11=Gems - He Makes Me Feel So Good
TTITLE12=Andrea Davis - You Gave Me Soul
TTITLE13=Fontella Bass - Safe And Sound
TTITLE14=Jackie Ross - You Really Know How To Hurt A Girl
TTITLE15=Geraldine Hunt - I Let Myself Go
TTITLE16=Carol Vega - One Little Thing
TTITLE17=Timiko - Is It A Sin
TTITLE18=Tawney Williams - Pretty Little Words
TTITLE19=Lovettes - A Love Of Mine
TTITLE20=Lovettes - Don't Cha Know
TTITLE21=Yvonne Baker and The Sensations - Party Across The Hall
TTITLE22=Clickettes - I Just Can't Help It
TTITLE23=Mary and the Desirables - You're Changing
TTITLE24=Honey and The Bees - Jing Jing A Ling
TTITLE25=Starlets - My Baby's Real
EXTD=
EXTT0=
EXTT1=
EXTT2=
EXTT3=
EXTT4=
EXTT5=
EXTT6=
EXTT7=
EXTT8=
EXTT9=
EXTT10=
EXTT11=
EXTT12=
EXTT13=
EXTT14=
EXTT15=
EXTT16=
EXTT17=
EXTT18=
EXTT19=
EXTT20=
EXTT21=
EXTT22=
EXTT23=
EXTT24=
EXTT25=
PLAYORDER=
